<svg id="Capa_1" enable-background="new 0 0 512 512" height="512" viewBox="0 0 512 512" width="512" xmlns="http://www.w3.org/2000/svg"><g><g id="Share_1_"><g><path d="m220.258 221.02-15.908-25.43 87.392-55.61 15.908 25.43z" fill="#4d6666"/></g><g><path d="m291.742 372.02-87.392-55.61 15.908-25.43 87.392 55.61z" fill="#4d6666"/></g></g><g><path d="m376 210c-57.891 0-105-47.109-105-105s47.109-105 105-105 105 47.109 105 105-47.109 105-105 105z" fill="#6cf"/></g><g><path d="m136 361c-57.891 0-105-47.109-105-105s47.109-105 105-105 105 47.109 105 105-47.109 105-105 105z" fill="#6cf"/></g><g><path d="m376 512c-57.891 0-105-47.109-105-105s47.109-105 105-105 105 47.109 105 105-47.109 105-105 105z" fill="#6cf"/></g><g fill="#59abff"><path d="m481 407c0-57.891-47.109-105-105-105v210c57.891 0 105-47.109 105-105z"/><path d="m481 105c0-57.891-47.109-105-105-105v210c57.891 0 105-47.109 105-105z"/><path d="m241 256c0-57.891-47.109-105-105-105v210c57.891 0 105-47.109 105-105z"/></g></g></svg>